:SAMPLES-PER-SECOND 24
:FULLY-SPECIFIED
:DEGREES
49
root  5.76453 39.6242 24.8838 177.269 -22.5284 163.463
RightUpLeg  -10.1235 -27.5105 -13.3694
RightLeg  23.9742 -4.09333 -2.21538
RightFoot  -4.97003 0.0231431 -1.02124
RightToes  -1.74623e-010 0 -2.59999e-017
Spine  3.07959 -4.93251 -7.35454
Spine1  15.6418 -5.82671 3.91818
HEad  -12.1483 -1.27842 -5.3576
LeftShoulder1  2.0463 -3.00692 -25.2582
LeftArm  15.9463 5.86803 -48.9323
LeftForeArm  95.4498 -79.9916 -93.293
LeftHand  -0.096212 9.59402 -1.14929
RightShoulder  3.24585 5.44059 30.3911
RightArm  -1.71073 -21.0052 30.779
RightForeArm  63.3896 73.9446 32.0125
RightHand  -1.08359 -15.5785 10.895
LeftUpLeg  0.743762 23.6427 9.68639
LeftLeg  55.7422 -2.52791 -3.488
LeftFoot  17.8232 2.15791 -8.70785
LeftToes  -6.27559e-011 -2.10356e-011 8.24929e-012
50
root  5.81402 39.7864 25.702 178.705 -28.4563 165.473
RightUpLeg  -9.97759 -32.9357 -11.9523
RightLeg  20.2393 -4.14533 -1.32188
RightFoot  -2.84251 -0.0145593 -0.0522449
RightToes  -1.74623e-010 0 -2.59999e-017
Spine  2.15843 -6.1723 -8.35266
Spine1  14.7624 -7.71892 5.9437
HEad  -10.293 -4.09624 -4.36511
LeftShoulder1  1.97111 -2.87205 -24.7175
LeftArm  19.9572 4.43462 -48.1839
LeftForeArm  95.8562 -80.0149 -93.2161
LeftHand  -0.11863 8.8446 -2.21101
RightShoulder  3.23746 5.40352 30.4492
RightArm  -2.86484 -29.0699 29.7741
RightForeArm  59.7099 74.1482 33.4767
RightHand  -0.711843 -12.6971 9.74801
LeftUpLeg  5.80617 24.0318 12.1469
LeftLeg  47.8018 -1.52416 -1.39259
LeftFoot  15.1807 1.19258 -5.48026
LeftToes  -6.27559e-011 -2.10356e-011 8.24929e-012
51
root  5.86487 39.7849 26.7113 179.53 -33.7275 167.303
RightUpLeg  -10.2292 -33.577 -11.2619
RightLeg  17.607 -9.45624 -0.531714
RightFoot  -0.382032 0.0717304 -0.749741
RightToes  -1.74623e-010 0 -2.59999e-017
Spine  2.04591 -6.81367 -8.92344
Spine1  13.9887 -8.86864 7.38483
HEad  -9.38611 -7.33748 -2.68113
LeftShoulder1  1.83085 -2.60735 -23.7122
LeftArm  23.3126 0.746284 -48.8726
LeftForeArm  93.9126 -79.9974 -91.8896
LeftHand  -0.0317999 9.08946 0.532563
RightShoulder  3.23875 5.3913 30.515
RightArm  -2.28238 -34.1471 28.5019
RightForeArm  57.0832 74.3748 34.8564
RightHand  -0.482209 -11.1775 8.10363
LeftUpLeg  10.7124 25.5712 14.8534
LeftLeg  39.1999 1.71733 1.85267
LeftFoot  16.6132 0.22912 -1.35164
LeftToes  -6.27559e-011 -2.10356e-011 8.24929e-012
52
root  5.88636 39.6797 27.8848 -179.695 -38.7034 168.146
RightUpLeg  -11.93 -37.4575 -10.5421
RightLeg  16.6311 -10.329 -1.05756
RightFoot  2.1747 0.220773 -1.7321
RightToes  -1.74623e-010 0 -2.59999e-017
Spine  2.20462 -7.03599 -10.4226
Spine1  14.2147 -9.83323 8.67218
HEad  -10.076 -10.7489 -0.726701
LeftShoulder1  1.75929 -2.46288 -23.2126
LeftArm  24.8058 -4.642 -50.2683
LeftForeArm  86.3905 -79.9295 -85.142
LeftHand  0.0159965 8.90754 2.01189
RightShoulder  3.21592 5.37022 30.3422
RightArm  -1.49589 -35.0109 27.5693
RightForeArm  55.2478 73.8867 33.7297
RightHand  -0.48015 -11.0385 8.25089
LeftUpLeg  15.0465 25.8842 15.5966
LeftLeg  30.0211 6.10073 4.11598
LeftFoot  16.5816 0.450192 -2.07127
LeftToes  -6.27559e-011 -2.10356e-011 8.24929e-012
53
root  5.8645 39.3377 29.2287 -178.064 -43.6486 168
RightUpLeg  -16.9757 -45.9844 -8.68314
RightLeg  18.5544 -5.86831 -2.40088
RightFoot  3.405 0.25827 -1.81492
RightToes  -1.74623e-010 0 -2.59999e-017
Spine  2.40119 -7.13801 -12.1844
Spine1  13.8562 -10.5979 9.4862
HEad  -10.6321 -14.3208 0.810321
LeftShoulder1  1.76618 -2.65406 -22.3656
LeftArm  24.9818 -9.48624 -53.0431
LeftForeArm  73.2089 -79.461 -73.1644
LeftHand  0.0477364 8.47169 3.3382
RightShoulder  3.08082 5.25368 29.2594
RightArm  -1.27692 -33.6236 27.6904
RightForeArm  53.1861 72.7345 30.941
RightHand  -0.455824 -10.5907 8.48536
LeftUpLeg  17.6774 25.2211 14.2842
LeftLeg  22.0573 8.64942 4.1692
LeftFoot  8.86356 2.05171 -11.7875
LeftToes  -6.27559e-011 -2.10356e-011 8.24929e-012
54
root  5.91677 38.5684 30.8103 -176.49 -48.4601 168.097
RightUpLeg  -23.3283 -47.9854 -7.96224
RightLeg  23.7194 -8.17115 -4.13816
RightFoot  4.15845 0.288457 -1.90792
RightToes  -1.74623e-010 0 -2.59999e-017
Spine  3.43077 -7.12119 -12.7432
Spine1  12.976 -10.9329 9.96029
HEad  -11.4701 -18.1478 2.63788
LeftShoulder1  1.75498 -2.83169 -21.3233
LeftArm  25.6582 -14.6958 -56.2959
LeftForeArm  59.1544 -78.4425 -61.998
LeftHand  0.128457 8.47366 6.19077
RightShoulder  2.93018 5.09492 28.1288
RightArm  -1.03106 -29.9965 27.5441
RightForeArm  46.3138 70.309 26.9604
RightHand  -0.313576 -9.69415 6.66832
LeftUpLeg  17.0214 21.639 11.621
LeftLeg  18.0699 9.34899 2.47666
LeftFoot  -4.59199 1.28745 -20.4161
LeftToes  -6.27559e-011 -2.10356e-011 8.24929e-012
